<svg width="175" height="50" viewBox="0 0 175 50" fill="none" xmlns="http://www.w3.org/2000/svg">
<path d="M35.1562 47.6562H31.25C31.0428 47.6562 30.8441 47.5739 30.6976 47.4274C30.5511 47.2809 30.4688 47.0822 30.4688 46.875C30.4688 46.6678 30.5511 46.4691 30.6976 46.3226C30.8441 46.1761 31.0428 46.0938 31.25 46.0938H35.1562C35.3635 46.0938 35.5622 46.1761 35.7087 46.3226C35.8552 46.4691 35.9375 46.6678 35.9375 46.875C35.9375 47.0822 35.8552 47.2809 35.7087 47.4274C35.5622 47.5739 35.3635 47.6562 35.1562 47.6562Z" fill="#EA9D2D"/>
<path d="M34.375 39.8438H32.0312C31.824 39.8438 31.6253 39.7614 31.4788 39.6149C31.3323 39.4684 31.25 39.2697 31.25 39.0625C31.25 38.8553 31.3323 38.6566 31.4788 38.5101C31.6253 38.3636 31.824 38.2812 32.0312 38.2812H34.375C34.5822 38.2812 34.7809 38.3636 34.9274 38.5101C35.0739 38.6566 35.1562 38.8553 35.1562 39.0625C35.1562 39.2697 35.0739 39.4684 34.9274 39.6149C34.7809 39.7614 34.5822 39.8438 34.375 39.8438Z" fill="#EA9D2D"/>
<path d="M27.3438 24.2188H36.9398C37.3059 24.2187 37.6646 24.3216 37.975 24.5156L43.75 28.125L42.9688 31.25L37.398 28.0908L35.5469 26.8802L27.3438 24.2188Z" fill="#55300B"/>
<path d="M34.0662 16.0883L35.9375 13.2812L38.2813 17.1875L34.0662 16.0883Z" fill="#027E2A"/>
<path d="M32.0312 14.8438L38.2812 17.1875L35.1562 24.2188L28.9062 21.875L32.0312 14.8438Z" fill="#02A437"/>
<path d="M20.3125 18.75L15.625 28.9062H18.75L21.0938 24.2188L20.3125 18.75Z" fill="#FDC9A6"/>
<path d="M18.8392 21.942L21.875 24.2188L23.4375 21.875L21.0937 17.9688L20.3125 18.75L18.8392 21.942Z" fill="#2CBFF4"/>
<path d="M10.9375 28.9062H31.25C32.4932 28.9063 33.6855 29.4001 34.5646 30.2792C35.4436 31.1583 35.9375 32.3505 35.9375 33.5938C35.9375 34.837 35.4436 36.0292 34.5646 36.9083C33.6855 37.7874 32.4932 38.2812 31.25 38.2812H10.9375V28.9062Z" fill="#D32B39"/>
<path d="M26.5625 11.7188C26.5625 9.99286 25.1634 8.59375 23.4375 8.59375C21.7116 8.59375 20.3125 9.99286 20.3125 11.7188V13.2812C20.3125 15.0071 21.7116 16.4062 23.4375 16.4062C25.1634 16.4062 26.5625 15.0071 26.5625 13.2812V11.7188Z" fill="#FDC9A6"/>
<path d="M26.5625 10.9375H21.875L20.3125 12.5L19.1767 9.66034C19.0451 9.33143 18.9955 8.97545 19.0322 8.62311C19.0689 8.27076 19.1907 7.93263 19.3872 7.63788C19.6529 7.23931 20.0423 6.93917 20.4954 6.78367C20.9484 6.62817 21.4401 6.62594 21.8945 6.77733L22.6563 7.03124L23.269 5.80575C23.5279 5.28792 23.9719 4.8863 24.5131 4.68056C25.0543 4.47482 25.653 4.47997 26.1905 4.69501C26.721 4.90721 27.154 5.30863 27.4056 5.82161C27.6572 6.3346 27.7096 6.92267 27.5526 7.47206L26.5625 10.9375Z" fill="#683B0D"/>
<path d="M21.875 16.4062L20.3125 18.75V22.0107C20.3125 22.4352 20.4113 22.8539 20.6012 23.2336L23.4375 28.9062L27.3438 24.2188L25.7812 21.875L25 16.4062H21.875Z" fill="#0296E5"/>
<path d="M22.6562 21.875L31.4771 23.9105C31.8577 23.9984 32.2569 23.9556 32.6103 23.7891C32.9637 23.6226 33.2508 23.3421 33.4254 22.9926C33.5406 22.7622 33.6032 22.5092 33.6087 22.2517C33.6143 21.9942 33.5627 21.7387 33.4575 21.5036C33.3524 21.2685 33.1964 21.0597 33.0008 20.8921C32.8053 20.7246 32.5749 20.6025 32.3265 20.5348L25.7812 18.75L22.6562 21.875Z" fill="#FDC9A6"/>
<path d="M25.7813 18.75L25.3588 17.0605C25.2564 16.6505 25.0199 16.2865 24.6868 16.0264C24.3537 15.7663 23.9432 15.625 23.5206 15.625C23.2326 15.6249 22.9484 15.6905 22.6896 15.8168C22.4308 15.943 22.2042 16.1266 22.0269 16.3536C21.8497 16.5806 21.7266 16.845 21.6668 17.1267C21.6071 17.4084 21.6124 17.7 21.6823 17.9794L22.6563 21.875L25.7813 18.75Z" fill="#2CBFF4"/>
<path d="M27.3438 24.2188L35.7945 26.3314C36.0824 26.4034 36.3501 26.54 36.5773 26.7309C36.8044 26.9217 36.9852 27.1619 37.1057 27.433L39.8438 33.5938L37.5 35.9375L34.375 28.9062H23.4375L27.3438 24.2188Z" fill="#683B0D"/>
<path d="M43.75 28.125L45.3125 27.3438L47.6562 28.125L46.0938 32.0312L42.9688 31.25L43.75 28.125Z" fill="#CBCBCB"/>
<path d="M39.8438 33.5938L42.9688 35.1562V37.5L38.2812 38.2812L37.5 35.9375L39.8438 33.5938Z" fill="#CBCBCB"/>
<path d="M10.8398 30.4688H8.49609C8.28889 30.4688 8.09018 30.3864 7.94367 30.2399C7.79715 30.0934 7.71484 29.8947 7.71484 29.6875C7.71484 29.4803 7.79715 29.2816 7.94367 29.1351C8.09018 28.9886 8.28889 28.9062 8.49609 28.9062H10.8398C11.047 28.9062 11.2458 28.9886 11.3923 29.1351C11.5388 29.2816 11.6211 29.4803 11.6211 29.6875C11.6211 29.8947 11.5388 30.0934 11.3923 30.2399C11.2458 30.3864 11.047 30.4688 10.8398 30.4688Z" fill="#D32B39"/>
<path d="M12.5 39.0625H8.59375C8.38655 39.0625 8.18784 38.9802 8.04132 38.8337C7.89481 38.6872 7.8125 38.4885 7.8125 38.2812C7.8125 38.074 7.89481 37.8753 8.04132 37.7288C8.18784 37.5823 8.38655 37.5 8.59375 37.5H12.5C12.7072 37.5 12.9059 37.5823 13.0524 37.7288C13.1989 37.8753 13.2812 38.074 13.2812 38.2812C13.2812 38.4885 13.1989 38.6872 13.0524 38.8337C12.9059 38.9802 12.7072 39.0625 12.5 39.0625Z" fill="#D32B39"/>
<path d="M10.9375 32.0312H31.25C31.6644 32.0312 32.0618 32.1959 32.3549 32.4889C32.6479 32.7819 32.8125 33.1793 32.8125 33.5938C32.8125 34.0082 32.6479 34.4056 32.3549 34.6986C32.0618 34.9916 31.6644 35.1562 31.25 35.1562H10.9375V32.0312Z" fill="#CBCBCB"/>
<path d="M32.8125 47.6562H12.5C11.2568 47.6562 10.0645 47.1624 9.18544 46.2833C8.30636 45.4042 7.8125 44.212 7.8125 42.9688C7.8125 41.7255 8.30636 40.5333 9.18544 39.6542C10.0645 38.7751 11.2568 38.2812 12.5 38.2812H32.8125V47.6562Z" fill="#EA9D2D"/>
<path d="M32.8125 41.4062H12.5C12.0856 41.4062 11.6882 41.5709 11.3951 41.8639C11.1021 42.1569 10.9375 42.5543 10.9375 42.9688C10.9375 43.3832 11.1021 43.7806 11.3951 44.0736C11.6882 44.3666 12.0856 44.5312 12.5 44.5312H32.8125V41.4062Z" fill="#CBCBCB"/>
<path d="M13.4153 17.0534L13.2812 17.1875H8.59375L8.45967 17.0534C7.75911 16.3529 7.2034 15.5212 6.82427 14.6059C6.44513 13.6905 6.25 12.7095 6.25 11.7188C6.25 10.4755 6.74386 9.28326 7.62294 8.40419C8.50201 7.52511 9.6943 7.03125 10.9375 7.03125C12.1807 7.03125 13.373 7.52511 14.2521 8.40419C15.1311 9.28326 15.625 10.4755 15.625 11.7188C15.625 12.7095 15.4299 13.6905 15.0507 14.6059C14.6716 15.5212 14.1159 16.3529 13.4153 17.0534Z" fill="#EA9D2D"/>
<path d="M13.0525 11.1663C12.9799 11.0938 12.8938 11.0362 12.799 10.9969C12.7042 10.9577 12.6026 10.9375 12.5 10.9375C12.3974 10.9375 12.2958 10.9577 12.201 10.9969C12.1063 11.0362 12.0201 11.0938 11.9476 11.1663L10.9375 12.1765L9.92746 11.1663C9.78095 11.0198 9.58223 10.9375 9.37502 10.9375C9.16781 10.9375 8.9691 11.0198 8.82258 11.1663C8.67606 11.3128 8.59375 11.5115 8.59375 11.7187C8.59375 11.926 8.67606 12.1247 8.82258 12.2712L10.1563 13.6049V17.1875C10.1563 17.3947 10.2386 17.5934 10.3851 17.7399C10.5316 17.8864 10.7303 17.9687 10.9375 17.9687C11.1447 17.9687 11.3434 17.8864 11.4899 17.7399C11.6365 17.5934 11.7188 17.3947 11.7188 17.1875V13.6049L13.0525 12.2712C13.125 12.1986 13.1826 12.1125 13.2218 12.0177C13.2611 11.9229 13.2813 11.8213 13.2813 11.7187C13.2813 11.6161 13.2611 11.5146 13.2218 11.4198C13.1826 11.325 13.125 11.2389 13.0525 11.1663Z" fill="#C38325"/>
<path d="M10.9375 4.6875C10.7303 4.6875 10.5316 4.60519 10.3851 4.45868C10.2386 4.31216 10.1562 4.11345 10.1562 3.90625V2.34375C10.1562 2.13655 10.2386 1.93784 10.3851 1.79132C10.5316 1.64481 10.7303 1.5625 10.9375 1.5625C11.1447 1.5625 11.3434 1.64481 11.4899 1.79132C11.6364 1.93784 11.7188 2.13655 11.7188 2.34375V3.90625C11.7188 4.11345 11.6364 4.31216 11.4899 4.45868C11.3434 4.60519 11.1447 4.6875 10.9375 4.6875Z" fill="#FBB540"/>
<path d="M7.42268 5.62958C7.28542 5.62972 7.15054 5.59368 7.03163 5.52511C6.91272 5.45653 6.81397 5.35784 6.74534 5.23896L5.96409 3.88583C5.91198 3.79695 5.87797 3.69864 5.86401 3.59656C5.85006 3.49448 5.85643 3.39064 5.88276 3.29103C5.9091 3.19142 5.95488 3.09801 6.01746 3.01616C6.08005 2.93432 6.1582 2.86566 6.24743 2.81415C6.33666 2.76263 6.43519 2.72927 6.53736 2.71599C6.63954 2.70271 6.74332 2.70977 6.84276 2.73677C6.94219 2.76376 7.0353 2.81016 7.11673 2.87328C7.19815 2.93641 7.26629 3.01502 7.31722 3.10459L8.09847 4.45771C8.167 4.57642 8.2031 4.71106 8.20313 4.84813C8.20317 4.9852 8.16714 5.11987 8.09867 5.23861C8.03019 5.35735 7.93168 5.45599 7.81303 5.52462C7.69438 5.59324 7.55975 5.62944 7.42268 5.62958Z" fill="#FBB540"/>
<path d="M4.84753 8.20314C4.71058 8.20318 4.57606 8.16703 4.45759 8.09835L3.10446 7.3171C2.92649 7.21276 2.79701 7.04227 2.74428 6.84282C2.69154 6.64337 2.71984 6.43116 2.823 6.2525C2.92615 6.07383 3.09578 5.94323 3.29488 5.88917C3.49398 5.83512 3.70637 5.86201 3.88571 5.96398L5.23884 6.74523C5.38786 6.83123 5.50433 6.96402 5.57016 7.123C5.63599 7.28197 5.64749 7.45823 5.60289 7.62441C5.55829 7.79059 5.46007 7.9374 5.32349 8.04204C5.1869 8.14669 5.01959 8.20332 4.84753 8.20314Z" fill="#FBB540"/>
<path d="M3.90625 11.7188H2.34375C2.13655 11.7188 1.93784 11.6364 1.79132 11.4899C1.64481 11.3434 1.5625 11.1447 1.5625 10.9375C1.5625 10.7303 1.64481 10.5316 1.79132 10.3851C1.93784 10.2386 2.13655 10.1562 2.34375 10.1562H3.90625C4.11345 10.1562 4.31216 10.2386 4.45868 10.3851C4.60519 10.5316 4.6875 10.7303 4.6875 10.9375C4.6875 11.1447 4.60519 11.3434 4.45868 11.4899C4.31216 11.6364 4.11345 11.7188 3.90625 11.7188Z" fill="#FBB540"/>
<path d="M3.4961 16.0156C3.32402 16.0158 3.1567 15.9592 3.0201 15.8546C2.8835 15.75 2.78526 15.6031 2.74065 15.437C2.69603 15.2708 2.70753 15.0945 2.77335 14.9355C2.83918 14.7765 2.95565 14.6437 3.10469 14.5577L4.45782 13.7765C4.63716 13.6745 4.84955 13.6476 5.04865 13.7017C5.24774 13.7557 5.41738 13.8863 5.52053 14.065C5.62368 14.2437 5.65198 14.4559 5.59925 14.6553C5.54652 14.8548 5.41704 15.0253 5.23907 15.1296L3.88594 15.9109C3.76747 15.9795 3.633 16.0156 3.4961 16.0156Z" fill="#FBB540"/>
<path d="M14.4523 5.62958C14.3153 5.62944 14.1806 5.59324 14.062 5.52462C13.9433 5.45599 13.8448 5.35735 13.7763 5.23861C13.7079 5.11987 13.6718 4.9852 13.6719 4.84813C13.6719 4.71106 13.708 4.57642 13.7765 4.45771L14.5578 3.10459C14.6087 3.01502 14.6769 2.93641 14.7583 2.87328C14.8397 2.81016 14.9328 2.76376 15.0323 2.73677C15.1317 2.70977 15.2355 2.70271 15.3376 2.71599C15.4398 2.72927 15.5384 2.76263 15.6276 2.81415C15.7168 2.86566 15.795 2.93432 15.8575 3.01616C15.9201 3.09801 15.9659 3.19142 15.9922 3.29103C16.0186 3.39064 16.025 3.49448 16.011 3.59656C15.997 3.69864 15.963 3.79695 15.9109 3.88583L15.1297 5.23896C15.061 5.35784 14.9623 5.45653 14.8434 5.52511C14.7245 5.59368 14.5896 5.62972 14.4523 5.62958Z" fill="#FBB540"/>
<path d="M13.2812 20.3125L11.7188 21.875H10.1562L8.59375 20.3125V17.1875H13.2812V20.3125Z" fill="#CBCBCB"/>
<path d="M8.59375 20.3125H13.2812L11.7188 21.875H10.1562L8.59375 20.3125Z" fill="#EAEAE8"/>
<path d="M67.877 41H48.8398L49.0332 40.3496C50.1699 40.3496 50.9961 40.1328 51.5117 39.6992C52.0391 39.2539 52.5254 38.2637 52.9707 36.7285L57.4004 21.418C57.6465 20.5742 57.7695 19.9121 57.7695 19.4316C57.7695 18.9629 57.5938 18.5879 57.2422 18.3066C56.8906 18.0254 56.1992 17.8613 55.168 17.8145L55.3613 17.1641H66.8047L66.6113 17.8145C65.5098 17.8379 64.6836 18.084 64.1328 18.5527C63.5938 19.0215 63.1133 19.9766 62.6914 21.418L58.6484 35.4277C58.1328 37.209 57.875 38.293 57.875 38.6797C57.875 38.9141 58.0039 39.1367 58.2617 39.3477C58.5312 39.5469 58.959 39.6465 59.5449 39.6465C61.4902 39.6465 63.3652 39.2012 65.1699 38.3105C66.9863 37.4199 68.5215 36.0898 69.7754 34.3203H70.5137L67.877 41ZM80.0938 16.6191C80.8203 16.6191 81.4297 16.8711 81.9219 17.375C82.4258 17.8789 82.6777 18.4883 82.6777 19.2031C82.6777 19.918 82.4258 20.5273 81.9219 21.0312C81.418 21.5352 80.8086 21.7871 80.0938 21.7871C79.3906 21.7871 78.7871 21.5352 78.2832 21.0312C77.7793 20.5273 77.5273 19.918 77.5273 19.2031C77.5273 18.4883 77.7734 17.8789 78.2656 17.375C78.7695 16.8711 79.3789 16.6191 80.0938 16.6191ZM81.1836 24.7051L77.5801 37.2031C77.3809 37.918 77.2812 38.3867 77.2812 38.6094C77.2812 38.7383 77.334 38.8613 77.4395 38.9785C77.5449 39.084 77.6562 39.1367 77.7734 39.1367C77.9727 39.1367 78.1719 39.0488 78.3711 38.873C78.8984 38.4395 79.5312 37.6543 80.2695 36.5176L80.8672 36.8691C79.0977 39.9512 77.2168 41.4922 75.2246 41.4922C74.4629 41.4922 73.8535 41.2812 73.3965 40.8594C72.9512 40.4258 72.7285 39.8809 72.7285 39.2246C72.7285 38.791 72.8281 38.2402 73.0273 37.5723L75.4707 29.1699C75.7051 28.3613 75.8223 27.752 75.8223 27.3418C75.8223 27.084 75.7109 26.8555 75.4883 26.6562C75.2656 26.457 74.9609 26.3574 74.5742 26.3574C74.3984 26.3574 74.1875 26.3633 73.9414 26.375L74.1699 25.6719L80.1289 24.7051H81.1836ZM93.4004 16.6191L90.3594 27.2188C91.2852 26.2109 92.0586 25.543 92.6797 25.2148C93.3008 24.875 93.9746 24.7051 94.7012 24.7051C96.1074 24.7051 97.1562 25.2148 97.8477 26.2344C98.5508 27.2422 98.9023 28.4082 98.9023 29.7324C98.9023 32.8965 97.7539 35.7207 95.457 38.2051C93.418 40.3965 91.0977 41.4922 88.4961 41.4922C86.5625 41.4922 84.5176 40.9238 82.3613 39.7871L87.7402 21.1367C87.998 20.2578 88.127 19.6543 88.127 19.3262C88.127 19.0449 88.0098 18.8223 87.7754 18.6582C87.4473 18.4238 86.9492 18.3242 86.2812 18.3594L86.4746 17.6562L92.3457 16.6191H93.4004ZM86.6504 39.9629C87.2012 40.3145 87.6992 40.4902 88.1445 40.4902C88.7656 40.4902 89.2871 40.3672 89.709 40.1211C90.377 39.7227 91.0742 39.002 91.8008 37.959C92.5391 36.916 93.1543 35.6562 93.6465 34.1797C94.1387 32.7031 94.3848 31.2324 94.3848 29.7676C94.3848 28.9355 94.1973 28.3027 93.8223 27.8691C93.4473 27.4355 93.0137 27.2188 92.5215 27.2188C91.7012 27.2188 90.9863 27.6172 90.377 28.4141C89.9668 28.9297 89.5215 30.0254 89.041 31.7012L86.6504 39.9629ZM105.6 27.7637L105.195 27.0254C106.988 26.0176 108.102 25.2441 108.535 24.7051C108.875 24.3066 109.045 23.8965 109.045 23.4746C109.045 23.0176 108.74 22.5137 108.131 21.9629C107.533 21.4004 107.135 20.9258 106.936 20.5391C106.783 20.2461 106.707 19.8711 106.707 19.4141C106.707 18.6523 106.988 17.9961 107.551 17.4453C108.125 16.8945 108.816 16.6191 109.625 16.6191C110.41 16.6191 111.09 16.9297 111.664 17.5508C112.25 18.1719 112.543 18.9453 112.543 19.8711C112.543 21.3359 111.98 22.7773 110.855 24.1953C109.742 25.6133 107.99 26.8027 105.6 27.7637ZM120.541 24.7051L117.887 34.584C120.066 29.7676 121.707 26.8027 122.809 25.6895C123.453 25.0332 124.133 24.7051 124.848 24.7051C125.34 24.7051 125.738 24.8867 126.043 25.25C126.348 25.6016 126.5 26.1055 126.5 26.7617C126.5 27.8984 126.225 28.8535 125.674 29.627C125.322 30.1191 124.93 30.3652 124.496 30.3652C124.027 30.3652 123.676 30.1484 123.441 29.7148C123.207 29.2812 123.043 29.0293 122.949 28.959C122.855 28.877 122.756 28.8359 122.65 28.8359C122.533 28.8359 122.41 28.8711 122.281 28.9414C122.023 29.082 121.684 29.4277 121.262 29.9785C120.852 30.5176 120.342 31.4258 119.732 32.7031C119.123 33.9805 118.648 35.0645 118.309 35.9551C117.969 36.834 117.494 38.5156 116.885 41H112.631L115.531 29.3457C115.742 28.4785 115.848 27.9043 115.848 27.623C115.848 27.3066 115.789 27.0605 115.672 26.8848C115.566 26.709 115.414 26.5801 115.215 26.498C115.027 26.416 114.629 26.375 114.02 26.375L114.178 25.8652L119.486 24.7051H120.541ZM143.287 24.9512L139.877 36.6406L139.525 38.0645C139.49 38.2402 139.473 38.3691 139.473 38.4512C139.473 38.5918 139.52 38.7148 139.613 38.8203C139.719 38.9258 139.824 38.9785 139.93 38.9785C140.176 38.9785 140.516 38.791 140.949 38.416C141.125 38.2637 141.547 37.7246 142.215 36.7988L142.83 37.1152C141.998 38.6387 141.107 39.752 140.158 40.4551C139.221 41.1465 138.207 41.4922 137.117 41.4922C136.449 41.4922 135.939 41.3223 135.588 40.9824C135.236 40.6309 135.061 40.1914 135.061 39.6641C135.061 39.207 135.248 38.3574 135.623 37.1152L136.045 35.6914C134.686 38.0234 133.379 39.6758 132.125 40.6484C131.398 41.2109 130.625 41.4922 129.805 41.4922C128.727 41.4922 127.947 41.0527 127.467 40.1738C126.986 39.2832 126.746 38.2812 126.746 37.168C126.746 35.5156 127.25 33.623 128.258 31.4902C129.266 29.3457 130.59 27.623 132.23 26.3223C133.578 25.2441 134.844 24.7051 136.027 24.7051C136.684 24.7051 137.211 24.8984 137.609 25.2852C138.008 25.6602 138.301 26.3516 138.488 27.3594L139.121 25.1973L143.287 24.9512ZM137.662 28.291C137.662 27.3418 137.516 26.6562 137.223 26.2344C137.012 25.9414 136.725 25.7949 136.361 25.7949C135.998 25.7949 135.623 25.9707 135.236 26.3223C134.451 27.0488 133.602 28.5254 132.688 30.752C131.785 32.9668 131.334 34.8828 131.334 36.5C131.334 37.1211 131.434 37.5723 131.633 37.8535C131.844 38.123 132.072 38.2578 132.318 38.2578C132.846 38.2578 133.379 37.9531 133.918 37.3438C134.691 36.4766 135.389 35.416 136.01 34.1621C137.111 31.959 137.662 30.002 137.662 28.291ZM152.568 24.7051L149.914 34.584C152.094 29.7676 153.734 26.8027 154.836 25.6895C155.48 25.0332 156.16 24.7051 156.875 24.7051C157.367 24.7051 157.766 24.8867 158.07 25.25C158.375 25.6016 158.527 26.1055 158.527 26.7617C158.527 27.8984 158.252 28.8535 157.701 29.627C157.35 30.1191 156.957 30.3652 156.523 30.3652C156.055 30.3652 155.703 30.1484 155.469 29.7148C155.234 29.2812 155.07 29.0293 154.977 28.959C154.883 28.877 154.783 28.8359 154.678 28.8359C154.561 28.8359 154.438 28.8711 154.309 28.9414C154.051 29.082 153.711 29.4277 153.289 29.9785C152.879 30.5176 152.369 31.4258 151.76 32.7031C151.15 33.9805 150.676 35.0645 150.336 35.9551C149.996 36.834 149.521 38.5156 148.912 41H144.658L147.559 29.3457C147.77 28.4785 147.875 27.9043 147.875 27.623C147.875 27.3066 147.816 27.0605 147.699 26.8848C147.594 26.709 147.441 26.5801 147.242 26.498C147.055 26.416 146.656 26.375 146.047 26.375L146.205 25.8652L151.514 24.7051H152.568ZM158.984 26.2871L164.398 24.7051C164.832 25.2441 165.137 25.7539 165.312 26.2344C165.629 27.0664 165.852 28.2148 165.98 29.6797C166.227 32.5625 166.396 35.6387 166.49 38.9082C167.744 37.2559 169.18 35.0703 170.797 32.3516C171.289 31.5312 171.535 30.7578 171.535 30.0312C171.535 29.5742 171.248 29.1406 170.674 28.7305C170.111 28.3203 169.76 28.0039 169.619 27.7812C169.479 27.5469 169.408 27.248 169.408 26.8848C169.408 26.2988 169.619 25.7891 170.041 25.3555C170.475 24.9219 170.996 24.7051 171.605 24.7051C172.25 24.7051 172.807 24.9512 173.275 25.4434C173.756 25.9355 173.996 26.5156 173.996 27.1836C173.996 27.9688 173.773 28.8828 173.328 29.9258C172.895 30.957 171.869 32.7324 170.252 35.252C168.178 38.4746 166.145 41.2637 164.152 43.6191C162.875 45.1191 161.844 46.1973 161.059 46.8535C160.273 47.5215 159.459 48.0488 158.615 48.4355C158.111 48.6582 157.613 48.7695 157.121 48.7695C156.453 48.7695 155.885 48.5352 155.416 48.0664C154.936 47.5977 154.695 47.041 154.695 46.3965C154.695 45.752 154.912 45.207 155.346 44.7617C155.768 44.3164 156.266 44.0938 156.84 44.0938C157.555 44.0938 158.211 44.4688 158.809 45.2188C159.207 45.7227 159.535 45.9746 159.793 45.9746C160.062 45.9746 160.326 45.8984 160.584 45.7461C160.936 45.5586 161.428 45.125 162.061 44.4453C162.131 42.9805 162.166 41.873 162.166 41.123C162.166 40.1152 162.119 38.6973 162.025 36.8691L161.727 30.1719C161.621 28.9414 161.357 28.0566 160.936 27.5176C160.607 27.1191 160.18 26.9199 159.652 26.9199C159.453 26.9199 159.23 26.9375 158.984 26.9727V26.2871Z" fill="black"/>
</svg>
